<svg xmlns="http://www.w3.org/2000/svg" xmlns:xlink="http://www.w3.org/1999/xlink" width="250" zoomAndPan="magnify" viewBox="0 0 187.5 60" height="80" preserveAspectRatio="xMidYMid meet" version="1.0"><defs><g/><clipPath id="d29456d4d2"><path d="M 0.371094 0.414062 L 53 0.414062 L 53 40.605469 L 0.371094 40.605469 Z M 0.371094 0.414062 " clip-rule="nonzero"/></clipPath><clipPath id="f48ccba53e"><path d="M 55 3 L 182.589844 3 L 182.589844 40.628906 L 55 40.628906 Z M 55 3 " clip-rule="nonzero"/></clipPath><clipPath id="24e9970c53"><rect x="0" width="128" y="0" height="38"/></clipPath><clipPath id="2f6d05a474"><rect x="0" width="183" y="0" height="41"/></clipPath></defs><g transform="matrix(1, 0, 0, 1, 1, 9)"><g clip-path="url(#2f6d05a474)"><g clip-path="url(#d29456d4d2)"><path fill="#004aad" d="M 31.304688 7.695312 C 31.300781 8.691406 30.492188 9.5 29.496094 9.5 C 28.5 9.5 27.6875 8.6875 27.6875 7.691406 C 27.6875 7.386719 27.761719 7.105469 27.894531 6.855469 C 28.347656 6.738281 28.867188 6.710938 29.40625 6.789062 C 29.609375 6.820312 29.804688 6.863281 29.988281 6.917969 C 30 6.972656 30.007812 7.027344 30.007812 7.082031 C 30.007812 7.488281 29.675781 7.820312 29.269531 7.820312 C 28.871094 7.820312 28.542969 7.5 28.535156 7.101562 C 28.472656 7.242188 28.4375 7.398438 28.4375 7.566406 C 28.4375 8.207031 28.957031 8.726562 29.597656 8.726562 C 30.242188 8.726562 30.761719 8.207031 30.761719 7.566406 C 30.761719 7.449219 30.746094 7.335938 30.710938 7.230469 C 30.945312 7.363281 31.148438 7.523438 31.304688 7.699219 Z M 26.664062 40.554688 L 31.46875 34.101562 C 27.71875 32.855469 24.144531 28.527344 29.226562 19.625 C 25.929688 23.8125 23.140625 30.445312 23.582031 36.414062 Z M 33.121094 31.882812 L 35.058594 29.285156 C 31.847656 26.785156 30.542969 22.636719 30.894531 18.671875 C 29.625 22.773438 30.265625 26.9375 33.121094 31.882812 Z M 37.410156 26.128906 L 39.8125 22.90625 L 52.957031 5.257812 L 41.347656 5.257812 L 39.914062 7.179688 C 39.609375 6.929688 39.289062 6.707031 38.949219 6.523438 L 38.875 6.28125 C 37.296875 1.175781 31.710938 0.316406 27.082031 0.738281 C 22.707031 1.132812 17.105469 2.859375 13.515625 5.359375 L 12.554688 6.027344 L 11.984375 5.257812 L 0.371094 5.257812 L 10.722656 19.152344 C 10.746094 17.496094 10.992188 15.828125 11.457031 14.148438 C 13.230469 9.085938 15.679688 6.578125 18.808594 6.621094 C 17.421875 6.332031 15.894531 6.25 14.222656 6.378906 C 20.011719 2.347656 35.195312 -1.433594 37.691406 6.648438 C 37.171875 6.363281 36.148438 5.890625 34.628906 5.234375 C 35.914062 6.144531 36.34375 7.023438 35.910156 7.863281 C 36.121094 8.644531 35.914062 8.964844 35.285156 8.820312 C 34.179688 8.617188 32.8125 7.742188 31.179688 6.199219 C 31.441406 6.617188 31.597656 6.980469 31.65625 7.289062 C 30.398438 6.40625 29.214844 5.933594 28.105469 5.875 C 24.546875 5.910156 21.316406 6.714844 18.40625 8.289062 C 20.375 7.574219 22.800781 7.128906 25.679688 6.957031 C 26.179688 8.0625 26.835938 8.875 27.644531 9.394531 C 26.566406 9.4375 25.601562 9.085938 24.753906 8.332031 C 26.164062 10.210938 28.28125 10.84375 31.105469 10.234375 C 32.71875 9.851562 34.226562 9.851562 35.628906 10.234375 C 35.546875 9.839844 35.65625 9.542969 35.949219 9.347656 C 35.984375 10.304688 35.792969 10.871094 35.375 11.050781 C 35.527344 11.085938 35.683594 11.128906 35.84375 11.175781 C 36.335938 10.5625 36.21875 8.769531 36.5625 7.214844 C 40.28125 6.816406 44.433594 14.78125 40.554688 18.003906 C 40.757812 16.445312 40.457031 15.414062 39.652344 14.90625 C 37.660156 14.347656 36.027344 13.671875 34.753906 12.890625 C 31.625 12.898438 29.558594 12.441406 28.558594 11.523438 C 20.722656 12.589844 16.402344 15.898438 15.597656 21.449219 C 17.515625 15.773438 22.460938 13.0625 30.433594 13.316406 C 29.425781 13.871094 28.820312 14.453125 28.617188 15.054688 C 30.667969 14.273438 32.699219 14.0625 34.699219 14.421875 C 31.480469 15.269531 31.085938 17.941406 33.515625 22.445312 C 32.054688 19.074219 32.070312 16.851562 33.570312 15.773438 C 34.492188 17.949219 36.839844 19.535156 40.609375 20.535156 C 37.976562 21.488281 35.601562 21.265625 33.484375 19.875 C 33.875 20.585938 34.613281 21.136719 35.703125 21.527344 C 35.976562 22.554688 36.511719 24.3125 37.410156 26.128906 Z M 16.285156 26.617188 L 17.546875 28.3125 C 17.554688 26.917969 17.65625 25.421875 17.851562 23.824219 C 17.203125 24.660156 16.683594 25.59375 16.285156 26.617188 Z M 18.570312 29.6875 L 23.582031 36.414062 C 18.089844 28.835938 21.335938 21.015625 30.609375 16.050781 C 24.042969 18.445312 20.03125 22.992188 18.570312 29.6875 Z M 36.992188 10.585938 C 37.003906 10.421875 38.375 8.796875 37.636719 9.097656 C 37.203125 9.273438 36.625 10.078125 36.96875 10.503906 C 37 10.546875 36.996094 10.527344 36.992188 10.585938 Z M 36.992188 10.585938 " fill-opacity="1" fill-rule="evenodd"/></g><g clip-path="url(#f48ccba53e)"><g transform="matrix(1, 0, 0, 1, 55, 3)"><g clip-path="url(#24e9970c53)"><g fill="#00c1f5" fill-opacity="1"><g transform="translate(0.855401, 29.113102)"><g><path d="M 5.328125 0.203125 C 3.796875 0.203125 2.648438 -0.335938 1.890625 -1.421875 C 1.140625 -2.503906 0.765625 -4.144531 0.765625 -6.34375 L 0.765625 -15.515625 C 0.765625 -17.484375 1.203125 -18.972656 2.078125 -19.984375 C 2.953125 -20.992188 4.257812 -21.5 6 -21.5 C 7.40625 -21.5 8.492188 -21.21875 9.265625 -20.65625 C 10.046875 -20.09375 10.582031 -19.273438 10.875 -18.203125 C 11.175781 -17.128906 11.328125 -15.75 11.328125 -14.0625 L 7.171875 -14.0625 L 7.171875 -15.96875 C 7.171875 -16.476562 7.097656 -16.875 6.953125 -17.15625 C 6.816406 -17.4375 6.566406 -17.578125 6.203125 -17.578125 C 5.390625 -17.578125 4.984375 -17.050781 4.984375 -16 L 4.984375 -5.671875 C 4.984375 -5.035156 5.066406 -4.550781 5.234375 -4.21875 C 5.398438 -3.882812 5.6875 -3.71875 6.09375 -3.71875 C 6.507812 -3.71875 6.800781 -3.882812 6.96875 -4.21875 C 7.132812 -4.550781 7.21875 -5.035156 7.21875 -5.671875 L 7.21875 -8.734375 L 6.078125 -8.734375 L 6.078125 -12.40625 L 11.28125 -12.40625 L 11.28125 0 L 9.578125 0 L 8.859375 -1.78125 C 8.097656 -0.457031 6.921875 0.203125 5.328125 0.203125 Z M 5.328125 0.203125 "/></g></g></g><g fill="#00c1f5" fill-opacity="1"><g transform="translate(12.879446, 29.113102)"><g><path d="M 4.171875 0.203125 C 2.765625 0.203125 1.800781 -0.265625 1.28125 -1.203125 C 0.757812 -2.140625 0.5 -3.472656 0.5 -5.203125 C 0.5 -6.628906 0.679688 -7.722656 1.046875 -8.484375 C 1.421875 -9.242188 1.9375 -9.800781 2.59375 -10.15625 C 3.257812 -10.507812 4.269531 -10.898438 5.625 -11.328125 L 6.8125 -11.734375 L 6.8125 -13.59375 C 6.8125 -14.070312 6.71875 -14.4375 6.53125 -14.6875 C 6.34375 -14.945312 6.117188 -15.078125 5.859375 -15.078125 C 5.617188 -15.078125 5.410156 -14.96875 5.234375 -14.75 C 5.066406 -14.539062 4.984375 -14.253906 4.984375 -13.890625 L 4.984375 -12.796875 L 0.765625 -12.796875 L 0.765625 -13.390625 C 0.765625 -15.171875 1.179688 -16.441406 2.015625 -17.203125 C 2.847656 -17.960938 4.207031 -18.34375 6.09375 -18.34375 C 7.601562 -18.34375 8.828125 -17.953125 9.765625 -17.171875 C 10.710938 -16.390625 11.1875 -15.28125 11.1875 -13.84375 L 11.1875 0 L 6.875 0 L 6.875 -2.15625 C 6.65625 -1.414062 6.3125 -0.835938 5.84375 -0.421875 C 5.375 -0.00390625 4.816406 0.203125 4.171875 0.203125 Z M 5.875 -3.171875 C 6.207031 -3.171875 6.441406 -3.304688 6.578125 -3.578125 C 6.722656 -3.859375 6.796875 -4.195312 6.796875 -4.59375 L 6.796875 -9.640625 C 6.148438 -9.398438 5.671875 -9.085938 5.359375 -8.703125 C 5.054688 -8.328125 4.90625 -7.796875 4.90625 -7.109375 L 4.90625 -4.78125 C 4.90625 -3.707031 5.226562 -3.171875 5.875 -3.171875 Z M 5.875 -3.171875 "/></g></g></g><g fill="#00c1f5" fill-opacity="1"><g transform="translate(24.853908, 29.113102)"><g><path d="M 0.875 -18.15625 L 5.203125 -18.15625 L 5.203125 -16.140625 C 5.421875 -16.847656 5.796875 -17.394531 6.328125 -17.78125 C 6.867188 -18.175781 7.535156 -18.375 8.328125 -18.375 L 8.328125 -14.75 C 7.722656 -14.75 7.050781 -14.660156 6.3125 -14.484375 C 5.570312 -14.316406 5.203125 -14.117188 5.203125 -13.890625 L 5.203125 0 L 0.875 0 Z M 0.875 -18.15625 "/></g></g></g><g fill="#00c1f5" fill-opacity="1"><g transform="translate(33.382303, 29.113102)"><g><path d="M 4.359375 0.203125 C 3.003906 0.203125 2.070312 -0.203125 1.5625 -1.015625 C 1.0625 -1.828125 0.8125 -3.035156 0.8125 -4.640625 L 0.8125 -18.15625 L 5.1875 -18.15625 L 5.1875 -5.5 C 5.1875 -5.382812 5.1875 -5.070312 5.1875 -4.5625 C 5.1875 -4.0625 5.265625 -3.707031 5.421875 -3.5 C 5.578125 -3.300781 5.820312 -3.203125 6.15625 -3.203125 C 6.59375 -3.203125 6.867188 -3.382812 6.984375 -3.75 C 7.109375 -4.125 7.171875 -4.660156 7.171875 -5.359375 L 7.171875 -5.5 L 7.1875 -18.15625 L 11.5 -18.15625 L 11.5 0 L 7.171875 0 L 7.171875 -1.9375 C 6.867188 -1.175781 6.519531 -0.628906 6.125 -0.296875 C 5.726562 0.0351562 5.140625 0.203125 4.359375 0.203125 Z M 4.359375 0.203125 "/></g></g></g><g fill="#00c1f5" fill-opacity="1"><g transform="translate(45.753434, 29.113102)"><g><path d="M 4.4375 0.203125 C 3.382812 0.203125 2.585938 -0.046875 2.046875 -0.546875 C 1.503906 -1.054688 1.144531 -1.726562 0.96875 -2.5625 C 0.800781 -3.394531 0.71875 -4.46875 0.71875 -5.78125 L 0.765625 -13.953125 C 0.765625 -15.242188 1.09375 -16.296875 1.75 -17.109375 C 2.40625 -17.929688 3.328125 -18.34375 4.515625 -18.34375 C 5.691406 -18.34375 6.566406 -17.957031 7.140625 -17.1875 L 7.140625 -21.421875 L 11.484375 -21.421875 L 11.484375 0 L 7.140625 0 L 7.140625 -1.9375 C 6.890625 -1.226562 6.550781 -0.691406 6.125 -0.328125 C 5.707031 0.0234375 5.144531 0.203125 4.4375 0.203125 Z M 6.09375 -3.203125 C 6.53125 -3.203125 6.8125 -3.410156 6.9375 -3.828125 C 7.070312 -4.253906 7.140625 -4.820312 7.140625 -5.53125 L 7.140625 -13.125 C 7.140625 -13.644531 7.0625 -14.085938 6.90625 -14.453125 C 6.757812 -14.816406 6.5 -15 6.125 -15 C 5.695312 -15 5.410156 -14.828125 5.265625 -14.484375 C 5.128906 -14.148438 5.0625 -13.695312 5.0625 -13.125 L 5.0625 -5.484375 C 5.0625 -3.960938 5.40625 -3.203125 6.09375 -3.203125 Z M 6.09375 -3.203125 "/></g></g></g><g fill="#00c1f5" fill-opacity="1"><g transform="translate(58.099773, 29.113102)"><g><path d="M 4.171875 0.203125 C 2.765625 0.203125 1.800781 -0.265625 1.28125 -1.203125 C 0.757812 -2.140625 0.5 -3.472656 0.5 -5.203125 C 0.5 -6.628906 0.679688 -7.722656 1.046875 -8.484375 C 1.421875 -9.242188 1.9375 -9.800781 2.59375 -10.15625 C 3.257812 -10.507812 4.269531 -10.898438 5.625 -11.328125 L 6.8125 -11.734375 L 6.8125 -13.59375 C 6.8125 -14.070312 6.71875 -14.4375 6.53125 -14.6875 C 6.34375 -14.945312 6.117188 -15.078125 5.859375 -15.078125 C 5.617188 -15.078125 5.410156 -14.96875 5.234375 -14.75 C 5.066406 -14.539062 4.984375 -14.253906 4.984375 -13.890625 L 4.984375 -12.796875 L 0.765625 -12.796875 L 0.765625 -13.390625 C 0.765625 -15.171875 1.179688 -16.441406 2.015625 -17.203125 C 2.847656 -17.960938 4.207031 -18.34375 6.09375 -18.34375 C 7.601562 -18.34375 8.828125 -17.953125 9.765625 -17.171875 C 10.710938 -16.390625 11.1875 -15.28125 11.1875 -13.84375 L 11.1875 0 L 6.875 0 L 6.875 -2.15625 C 6.65625 -1.414062 6.3125 -0.835938 5.84375 -0.421875 C 5.375 -0.00390625 4.816406 0.203125 4.171875 0.203125 Z M 5.875 -3.171875 C 6.207031 -3.171875 6.441406 -3.304688 6.578125 -3.578125 C 6.722656 -3.859375 6.796875 -4.195312 6.796875 -4.59375 L 6.796875 -9.640625 C 6.148438 -9.398438 5.671875 -9.085938 5.359375 -8.703125 C 5.054688 -8.328125 4.90625 -7.796875 4.90625 -7.109375 L 4.90625 -4.78125 C 4.90625 -3.707031 5.226562 -3.171875 5.875 -3.171875 Z M 5.875 -3.171875 "/></g></g></g><g fill="#004aad" fill-opacity="1"><g transform="translate(70.074236, 29.113102)"><g><path d="M 2.90625 0 L 0.265625 -21.328125 L 4.34375 -21.328125 L 5.90625 -6.8125 L 7.296875 -21.328125 L 11.359375 -21.328125 L 8.734375 0 Z M 2.90625 0 "/></g></g></g><g fill="#004aad" fill-opacity="1"><g transform="translate(81.701612, 29.113102)"><g><path d="M 5.953125 0.203125 C 4.085938 0.203125 2.75 -0.304688 1.9375 -1.328125 C 1.125 -2.359375 0.71875 -3.890625 0.71875 -5.921875 L 0.71875 -13.21875 C 0.71875 -14.882812 1.195312 -16.15625 2.15625 -17.03125 C 3.113281 -17.90625 4.453125 -18.34375 6.171875 -18.34375 C 9.660156 -18.34375 11.40625 -16.632812 11.40625 -13.21875 L 11.40625 -11.90625 C 11.40625 -10.582031 11.390625 -9.503906 11.359375 -8.671875 L 5.0625 -8.671875 L 5.0625 -5.15625 C 5.0625 -4.53125 5.125 -4.039062 5.25 -3.6875 C 5.382812 -3.332031 5.664062 -3.15625 6.09375 -3.15625 C 6.425781 -3.15625 6.660156 -3.253906 6.796875 -3.453125 C 6.941406 -3.648438 7.023438 -3.875 7.046875 -4.125 C 7.078125 -4.382812 7.09375 -4.757812 7.09375 -5.25 L 7.09375 -7.015625 L 11.40625 -7.015625 L 11.40625 -5.96875 C 11.40625 -3.851562 10.992188 -2.296875 10.171875 -1.296875 C 9.359375 -0.296875 7.953125 0.203125 5.953125 0.203125 Z M 7.09375 -10.84375 L 7.09375 -13.171875 C 7.09375 -14.472656 6.769531 -15.125 6.125 -15.125 C 5.394531 -15.125 5.03125 -14.472656 5.03125 -13.171875 L 5.03125 -10.84375 Z M 7.09375 -10.84375 "/></g></g></g><g fill="#004aad" fill-opacity="1"><g transform="translate(93.800033, 29.113102)"><g><path d="M 0.875 -18.15625 L 5.203125 -18.15625 L 5.203125 -16.140625 C 5.421875 -16.847656 5.796875 -17.394531 6.328125 -17.78125 C 6.867188 -18.175781 7.535156 -18.375 8.328125 -18.375 L 8.328125 -14.75 C 7.722656 -14.75 7.050781 -14.660156 6.3125 -14.484375 C 5.570312 -14.316406 5.203125 -14.117188 5.203125 -13.890625 L 5.203125 0 L 0.875 0 Z M 0.875 -18.15625 "/></g></g></g><g fill="#004aad" fill-opacity="1"><g transform="translate(102.328428, 29.113102)"><g><path d="M 0.84375 -19.359375 L 0.84375 -22.390625 L 5.1875 -22.390625 L 5.1875 -19.359375 Z M 0.84375 0 L 0.84375 -18.15625 L 5.1875 -18.15625 L 5.1875 0 Z M 0.84375 0 "/></g></g></g><g fill="#004aad" fill-opacity="1"><g transform="translate(108.352846, 29.113102)"><g><path d="M 1.265625 -14.0625 L 0.5 -14.0625 L 0.515625 -17.359375 L 1.265625 -17.359375 L 1.265625 -18.59375 C 1.265625 -20.550781 2.238281 -21.53125 4.1875 -21.53125 C 5.113281 -21.53125 5.859375 -21.410156 6.421875 -21.171875 L 6.421875 -18.5 C 6.253906 -18.550781 6.125 -18.578125 6.03125 -18.578125 C 5.789062 -18.578125 5.640625 -18.492188 5.578125 -18.328125 C 5.515625 -18.160156 5.484375 -17.910156 5.484375 -17.578125 L 5.484375 -17.359375 L 6.421875 -17.359375 L 6.421875 -14.015625 L 5.578125 -14.015625 L 5.578125 0 L 1.265625 0 Z M 1.265625 -14.0625 "/></g></g></g><g fill="#004aad" fill-opacity="1"><g transform="translate(115.294563, 29.113102)"><g><path d="M 0.515625 0.265625 L 2.609375 0.265625 C 2.898438 0.265625 3.046875 0.144531 3.046875 -0.09375 C 3.046875 -0.207031 3.039062 -0.300781 3.03125 -0.375 L 0.203125 -18.15625 L 4.34375 -18.15625 L 5.15625 -9.296875 L 5.546875 -4.78125 L 6.03125 -9.296875 L 7 -18.15625 L 11.15625 -18.15625 L 7.78125 0.9375 C 7.664062 1.65625 7.429688 2.179688 7.078125 2.515625 C 6.722656 2.859375 6.164062 3.03125 5.40625 3.03125 L 0.515625 3.03125 Z M 0.515625 0.265625 "/></g></g></g></g></g></g></g></g></svg>